<svg width="254" height="255" viewBox="0 0 254 255" fill="none" xmlns="http://www.w3.org/2000/svg">
<g clip-path="url(#clip0_1_3)">
<path d="M254 127.117C254 197.257 197.14 254.117 127 254.117C56.8598 254.117 0 197.257 0 127.117C0 56.9768 56.8598 0.116943 127 0.116943C197.14 0.116943 254 56.9768 254 127.117Z" fill="#240642"/>
<path d="M59.7754 143.511V132.311L64.6754 136.211C68.7254 139.211 72.6254 140.761 76.0754 140.761C79.8254 140.761 81.9754 138.911 81.9754 135.661C81.9754 132.661 80.1754 130.911 75.0254 128.911L69.2254 126.861C62.2754 124.311 58.7754 120.511 58.7754 115.461C58.7754 109.911 63.0254 106.011 69.0254 106.011C72.4754 106.011 76.0754 107.261 79.1754 109.561L84.8254 106.911V117.811L80.5254 114.161C76.1254 110.461 72.5254 108.711 69.5254 108.711C66.4754 108.711 64.6254 110.411 64.6254 113.111C64.6254 115.811 66.4254 117.711 71.0254 119.511L76.2754 121.411C84.4254 124.361 87.9254 127.811 87.9254 133.061C87.9254 139.311 83.0754 143.561 75.8754 143.561C72.3254 143.561 68.3254 142.511 65.3754 140.811L59.7754 143.511ZM90.9633 124.861C90.9633 113.361 97.5633 106.011 107.813 106.011C118.363 106.011 124.813 113.111 124.813 124.861C124.813 136.511 118.363 143.561 107.813 143.561C97.3633 143.561 90.9633 136.511 90.9633 124.861ZM117.063 124.761C117.063 114.061 113.813 108.661 107.813 108.661C101.863 108.661 98.7133 114.011 98.7133 124.761C98.7133 135.561 101.813 140.911 107.813 140.911C113.913 140.911 117.063 135.461 117.063 124.761ZM155.438 134.761L157.538 131.111V140.761C153.788 142.561 149.338 143.561 145.238 143.561C134.588 143.561 128.538 136.911 128.538 125.411C128.538 113.511 135.138 106.011 145.038 106.011C148.238 106.011 151.338 106.761 153.338 108.111L156.788 106.511V119.011L153.987 114.361C151.687 110.511 148.738 108.561 145.388 108.561C139.488 108.561 136.288 114.311 136.288 124.811C136.288 135.511 139.637 141.011 145.938 141.011C149.788 141.011 153.138 138.861 155.438 134.761ZM198.063 143.011H171.013L181.563 133.261C187.263 128.011 189.913 122.811 189.913 116.711C189.913 111.461 187.713 108.661 183.863 108.661C179.963 108.661 177.813 111.411 177.713 115.961C177.663 119.111 176.663 120.511 174.563 120.511C172.513 120.511 171.313 119.061 171.313 116.411C171.313 110.411 176.963 106.011 185.013 106.011C192.713 106.011 197.613 110.011 197.613 116.511C197.613 122.011 194.213 126.711 185.063 133.561L181.813 136.511H192.513L198.063 130.811V143.011Z" fill="white"/>
<path d="M44.5004 87.4327L44.0004 64.5127C43.9804 63.4527 44.6404 62.5427 45.5804 62.1927L124.64 29.2927C125.61 28.8827 126.67 28.9227 127.58 29.2927L207.57 62.3927C208.56 62.7627 209.18 63.7227 209.15 64.7227L208.65 87.4427C208.63 88.5427 207.71 89.4227 206.61 89.4027C205.54 89.3827 204.68 88.5127 204.65 87.4427L204.15 64.7227L205.73 67.0527L124.65 36.7327H127.59L47.4204 66.8427L49.0004 64.5227L48.5004 87.4427C48.4104 90.0027 44.6204 90.0427 44.5004 87.4427V87.4327Z" fill="#F8F4F3"/>
<path d="M202.45 163.493C195.34 178.633 185.08 192.193 171.61 202.283C158.07 212.033 143.04 219.573 127.1 224.563C126.41 224.763 125.7 224.753 125.06 224.563C120.93 223.303 117.19 221.873 113.26 220.243C101.81 215.443 90.9204 209.493 80.8704 202.153C67.5004 192.063 57.3004 178.583 50.2204 163.503C49.2204 161.103 52.7104 159.463 53.8704 161.863C61.0404 175.683 71.5104 188.433 84.3504 197.263C90.8604 201.653 97.8804 205.443 105.05 208.753C112.15 211.973 119.62 214.833 127.12 216.843H125.08C138.4 213.283 151.3 207.653 163.15 200.593C175.09 193.643 185.04 183.563 192.77 172.083C194.99 168.773 197.12 165.283 198.85 161.803C199.99 159.553 203.49 161.103 202.46 163.513L202.45 163.493Z" fill="#F8F4F3"/>
</g>
<defs>
<clipPath id="clip0_1_3">
<rect width="254" height="254" fill="white" transform="translate(0 0.116943)"/>
</clipPath>
</defs>
</svg>
