<svg width="254" height="254" viewBox="0 0 254 254" fill="none" xmlns="http://www.w3.org/2000/svg">
<g clip-path="url(#clip0_1_9)">
<circle cx="127" cy="127" r="127" fill="#240642"/>
<path d="M97.1888 121.168H83.6888L86.1888 115.718V89.6177L82.2388 84.9177H95.6888L93.2388 90.3677V116.468L97.1888 121.168ZM102.791 121.668V110.468L107.691 114.368C111.741 117.368 115.641 118.918 119.091 118.918C122.841 118.918 124.991 117.068 124.991 113.818C124.991 110.818 123.191 109.068 118.041 107.068L112.241 105.018C105.291 102.468 101.791 98.6677 101.791 93.6177C101.791 88.0677 106.041 84.1677 112.041 84.1677C115.491 84.1677 119.091 85.4177 122.191 87.7177L127.841 85.0677V95.9677L123.541 92.3177C119.141 88.6177 115.541 86.8677 112.541 86.8677C109.491 86.8677 107.641 88.5677 107.641 91.2677C107.641 93.9677 109.441 95.8677 114.041 97.6677L119.291 99.5677C127.441 102.518 130.941 105.968 130.941 111.218C130.941 117.468 126.091 121.718 118.891 121.718C115.341 121.718 111.341 120.668 108.391 118.968L102.791 121.668ZM134.979 103.018C134.979 91.5177 141.579 84.1677 151.829 84.1677C162.379 84.1677 168.829 91.2677 168.829 103.018C168.829 114.668 162.379 121.718 151.829 121.718C141.379 121.718 134.979 114.668 134.979 103.018ZM161.079 102.918C161.079 92.2177 157.829 86.8177 151.829 86.8177C145.879 86.8177 142.729 92.1677 142.729 102.918C142.729 113.718 145.829 119.068 151.829 119.068C157.929 119.068 161.079 113.618 161.079 102.918ZM79.5269 164.168H52.4769L63.0269 154.418C68.7269 149.168 71.3769 143.968 71.3769 137.868C71.3769 132.618 69.1769 129.818 65.3269 129.818C61.4269 129.818 59.2769 132.568 59.1769 137.118C59.1269 140.268 58.1269 141.668 56.0269 141.668C53.9769 141.668 52.7769 140.218 52.7769 137.568C52.7769 131.568 58.4269 127.168 66.4769 127.168C74.1769 127.168 79.0769 131.168 79.0769 137.668C79.0769 143.168 75.6769 147.868 66.5269 154.718L63.2769 157.668H73.9769L79.5269 151.968V164.168ZM87.8234 134.468L83.3734 139.568V127.918H110.023L106.523 134.468C101.273 143.368 97.2234 153.468 94.5734 164.168H85.9234C89.6734 152.568 95.9734 142.218 103.923 134.468H87.8234ZM110.198 146.318C110.198 133.868 115.648 127.168 125.898 127.168C136.198 127.168 141.698 133.818 141.698 146.268C141.698 158.318 136.198 164.718 125.898 164.718C115.698 164.718 110.198 158.318 110.198 146.318ZM133.998 146.068C133.998 135.518 131.198 129.918 125.898 129.918C120.648 129.918 117.848 135.468 117.848 146.068C117.848 156.768 120.498 161.968 125.898 161.968C131.198 161.968 133.998 156.468 133.998 146.068ZM145.744 146.318C145.744 133.868 151.194 127.168 161.444 127.168C171.744 127.168 177.244 133.818 177.244 146.268C177.244 158.318 171.744 164.718 161.444 164.718C151.244 164.718 145.744 158.318 145.744 146.318ZM169.544 146.068C169.544 135.518 166.744 129.918 161.444 129.918C156.194 129.918 153.394 135.468 153.394 146.068C153.394 156.768 156.044 161.968 161.444 161.968C166.744 161.968 169.544 156.468 169.544 146.068ZM198.341 164.168H184.941L187.391 158.718V136.818L181.041 137.568L194.391 127.168V159.468L198.341 164.168Z" fill="white"/>
<path d="M157.12 22.3164C152.06 29.4164 139.96 33.4964 125.84 33.4964C111.72 33.4964 99.8202 29.4964 94.6902 22.4964" stroke="#F8F4F3" stroke-width="4" stroke-miterlimit="10" stroke-linecap="round"/>
<path d="M192.03 40.3964C181.32 47.4964 155.68 60.7764 125.77 60.7764C95.8602 60.7764 70.6502 47.5764 59.7802 40.5764" stroke="#F8F4F3" stroke-width="4" stroke-miterlimit="10" stroke-linecap="round"/>
<path d="M106.31 30.0564C106.31 30.0564 79.3702 39.1364 66.2902 65.6564" stroke="#F8F4F3" stroke-width="4" stroke-miterlimit="10" stroke-linecap="round"/>
<path d="M115.05 33.0664C115.05 33.0664 99.5301 45.7964 94.3401 65.6564" stroke="#F8F4F3" stroke-width="4" stroke-miterlimit="10" stroke-linecap="round"/>
<path d="M146.81 30.0564C146.81 30.0564 173.75 39.1364 186.83 65.6564" stroke="#F8F4F3" stroke-width="4" stroke-miterlimit="10" stroke-linecap="round"/>
<path d="M138.07 33.0664C138.07 33.0664 153.59 45.7964 158.78 65.6564" stroke="#F8F4F3" stroke-width="4" stroke-miterlimit="10" stroke-linecap="round"/>
<path d="M126.56 34.4064V65.6564" stroke="#F8F4F3" stroke-width="4" stroke-miterlimit="10" stroke-linecap="round"/>
<path d="M157.12 231.047C152.06 223.947 139.96 219.867 125.84 219.867C111.72 219.867 99.82 223.867 94.69 230.867" stroke="#F8F4F3" stroke-width="4" stroke-miterlimit="10" stroke-linecap="round"/>
<path d="M192.03 212.977C181.32 205.877 155.68 192.597 125.77 192.597C95.86 192.597 70.65 205.797 59.78 212.797" stroke="#F8F4F3" stroke-width="4" stroke-miterlimit="10" stroke-linecap="round"/>
<path d="M106.31 223.307C106.31 223.307 79.37 214.227 66.29 187.707" stroke="#F8F4F3" stroke-width="4" stroke-miterlimit="10" stroke-linecap="round"/>
<path d="M115.05 220.297C115.05 220.297 99.53 207.567 94.34 187.707" stroke="#F8F4F3" stroke-width="4" stroke-miterlimit="10" stroke-linecap="round"/>
<path d="M146.81 223.307C146.81 223.307 173.75 214.227 186.83 187.707" stroke="#F8F4F3" stroke-width="4" stroke-miterlimit="10" stroke-linecap="round"/>
<path d="M138.07 220.297C138.07 220.297 153.59 207.567 158.78 187.707" stroke="#F8F4F3" stroke-width="4" stroke-miterlimit="10" stroke-linecap="round"/>
<path d="M126.56 218.957V187.707" stroke="#F8F4F3" stroke-width="4" stroke-miterlimit="10" stroke-linecap="round"/>
<path d="M226.027 89.6959C198.667 18.793 108.548 -2.72628 52.9875 49.5922C41.1212 60.7207 31.9191 74.4848 25.9798 89.6959C25.7749 90.2246 25.1764 90.4829 24.6518 90.2779C24.1476 90.0812 23.8894 89.5278 24.0451 89.0196C27.3202 78.387 32.4438 68.2955 38.9857 59.2C47.204 47.8173 57.7218 38.0824 69.6783 30.7085C111.409 4.72144 167.671 11.2838 202.13 46.3909C206.086 50.3792 209.734 54.6625 213.021 59.2C219.563 68.2914 224.683 78.387 227.962 89.0155C228.273 90.2574 226.601 90.9255 226.027 89.6918V89.6959Z" fill="#F8F4F3"/>
<path d="M226.027 164.07C198.667 234.973 108.548 256.492 52.9875 204.174C41.1212 193.045 31.9191 179.281 25.9798 164.07C25.7749 163.541 25.1764 163.283 24.6518 163.488C24.1476 163.685 23.8894 164.238 24.0451 164.747C27.3202 175.379 32.4438 185.471 38.9857 194.566C47.204 205.949 57.7218 215.684 69.6783 223.058C111.409 249.045 167.671 242.482 202.13 207.375C206.086 203.387 209.734 199.104 213.021 194.566C219.563 185.475 224.683 175.379 227.962 164.751C228.273 163.509 226.601 162.841 226.027 164.074V164.07Z" fill="#F8F4F3"/>
</g>
<defs>
<clipPath id="clip0_1_9">
<rect width="254" height="254" fill="white"/>
</clipPath>
</defs>
</svg>
